<?xml version="1.0" encoding="UTF-8"?>
<svg xmlns="http://www.w3.org/2000/svg" xmlns:xlink="http://www.w3.org/1999/xlink" width="375pt" height="374.999991pt" viewBox="0 0 375 374.999991" version="1.2">
<g id="surface1">
<path style=" stroke:none;fill-rule:nonzero;fill:rgb(0%,0%,0%);fill-opacity:1;" d="M 187.5 0 C 184.429688 0 181.363281 0.0742188 178.300781 0.226562 C 175.234375 0.375 172.175781 0.601562 169.121094 0.902344 C 166.066406 1.203125 163.023438 1.578125 159.988281 2.03125 C 156.953125 2.480469 153.929688 3.003906 150.921875 3.601562 C 147.910156 4.203125 144.917969 4.875 141.941406 5.617188 C 138.964844 6.363281 136.007812 7.183594 133.070312 8.074219 C 130.136719 8.964844 127.222656 9.925781 124.332031 10.960938 C 121.445312 11.996094 118.582031 13.097656 115.746094 14.273438 C 112.910156 15.445312 110.105469 16.691406 107.332031 18.003906 C 104.558594 19.3125 101.820312 20.691406 99.113281 22.140625 C 96.40625 23.585938 93.738281 25.097656 91.105469 26.675781 C 88.472656 28.253906 85.882812 29.894531 83.332031 31.597656 C 80.777344 33.304688 78.269531 35.070312 75.804688 36.898438 C 73.339844 38.726562 70.921875 40.613281 68.550781 42.558594 C 66.179688 44.507812 63.855469 46.511719 61.582031 48.570312 C 59.308594 50.632812 57.085938 52.746094 54.917969 54.917969 C 52.746094 57.085938 50.632812 59.308594 48.570312 61.582031 C 46.511719 63.855469 44.507812 66.179688 42.558594 68.550781 C 40.613281 70.921875 38.726562 73.339844 36.898438 75.804688 C 35.070312 78.269531 33.304688 80.777344 31.597656 83.332031 C 29.894531 85.882812 28.253906 88.472656 26.675781 91.105469 C 25.097656 93.738281 23.585938 96.40625 22.140625 99.113281 C 20.691406 101.820312 19.3125 104.558594 18.003906 107.332031 C 16.691406 110.105469 15.445312 112.910156 14.273438 115.746094 C 13.097656 118.582031 11.996094 121.445312 10.960938 124.332031 C 9.925781 127.222656 8.964844 130.136719 8.074219 133.070312 C 7.183594 136.007812 6.363281 138.964844 5.621094 141.941406 C 4.875 144.917969 4.203125 147.910156 3.601562 150.921875 C 3.003906 153.929688 2.480469 156.953125 2.03125 159.988281 C 1.578125 163.023438 1.203125 166.066406 0.902344 169.121094 C 0.601562 172.175781 0.375 175.234375 0.226562 178.300781 C 0.0742188 181.363281 0 184.429688 0 187.5 C 0 190.570312 0.0742188 193.636719 0.226562 196.699219 C 0.375 199.765625 0.601562 202.824219 0.902344 205.878906 C 1.203125 208.933594 1.578125 211.976562 2.03125 215.011719 C 2.480469 218.046875 3.003906 221.070312 3.601562 224.078125 C 4.203125 227.089844 4.875 230.082031 5.621094 233.058594 C 6.363281 236.035156 7.183594 238.992188 8.074219 241.929688 C 8.964844 244.863281 9.925781 247.777344 10.960938 250.667969 C 11.996094 253.554688 13.097656 256.417969 14.273438 259.253906 C 15.445312 262.089844 16.691406 264.890625 18.003906 267.667969 C 19.3125 270.441406 20.691406 273.179688 22.140625 275.886719 C 23.585938 278.59375 25.097656 281.261719 26.675781 283.894531 C 28.253906 286.527344 29.894531 289.117188 31.597656 291.667969 C 33.304688 294.222656 35.070312 296.730469 36.898438 299.195312 C 38.726562 301.660156 40.613281 304.078125 42.558594 306.449219 C 44.507812 308.820312 46.511719 311.144531 48.570312 313.417969 C 50.632812 315.691406 52.746094 317.914062 54.917969 320.082031 C 57.085938 322.253906 59.308594 324.367188 61.582031 326.429688 C 63.855469 328.488281 66.179688 330.492188 68.550781 332.4375 C 70.921875 334.386719 73.339844 336.273438 75.804688 338.101562 C 78.269531 339.929688 80.777344 341.695312 83.332031 343.402344 C 85.882812 345.105469 88.472656 346.746094 91.105469 348.324219 C 93.738281 349.902344 96.40625 351.414062 99.113281 352.859375 C 101.820312 354.308594 104.558594 355.6875 107.332031 356.996094 C 110.105469 358.308594 112.910156 359.554688 115.746094 360.726562 C 118.582031 361.902344 121.445312 363.003906 124.332031 364.039062 C 127.222656 365.074219 130.136719 366.035156 133.070312 366.925781 C 136.007812 367.816406 138.964844 368.636719 141.941406 369.378906 C 144.917969 370.125 147.910156 370.796875 150.921875 371.398438 C 153.929688 371.996094 156.953125 372.519531 159.988281 372.96875 C 163.023438 373.421875 166.066406 373.796875 169.121094 374.097656 C 172.175781 374.398438 175.234375 374.625 178.300781 374.773438 C 181.363281 374.925781 184.429688 375 187.5 375 C 190.570312 375 193.636719 374.925781 196.699219 374.773438 C 199.765625 374.625 202.824219 374.398438 205.878906 374.097656 C 208.933594 373.796875 211.976562 373.421875 215.011719 372.96875 C 218.046875 372.519531 221.070312 371.996094 224.078125 371.398438 C 227.089844 370.796875 230.082031 370.125 233.058594 369.378906 C 236.035156 368.636719 238.992188 367.816406 241.929688 366.925781 C 244.863281 366.035156 247.777344 365.074219 250.667969 364.039062 C 253.554688 363.003906 256.417969 361.902344 259.253906 360.726562 C 262.089844 359.554688 264.890625 358.308594 267.667969 356.996094 C 270.441406 355.6875 273.179688 354.308594 275.886719 352.859375 C 278.59375 351.414062 281.261719 349.902344 283.894531 348.324219 C 286.527344 346.746094 289.117188 345.105469 291.667969 343.402344 C 294.222656 341.695312 296.730469 339.929688 299.195312 338.101562 C 301.660156 336.273438 304.078125 334.386719 306.449219 332.4375 C 308.820312 330.492188 311.144531 328.488281 313.417969 326.429688 C 315.691406 324.367188 317.914062 322.253906 320.082031 320.082031 C 322.253906 317.914062 324.367188 315.691406 326.429688 313.417969 C 328.488281 311.144531 330.492188 308.820312 332.4375 306.449219 C 334.386719 304.078125 336.273438 301.660156 338.101562 299.195312 C 339.929688 296.730469 341.695312 294.222656 343.402344 291.667969 C 345.105469 289.117188 346.746094 286.527344 348.324219 283.894531 C 349.902344 281.261719 351.414062 278.59375 352.859375 275.886719 C 354.308594 273.179688 355.6875 270.441406 356.996094 267.667969 C 358.308594 264.890625 359.554688 262.089844 360.726562 259.253906 C 361.902344 256.417969 363.003906 253.554688 364.039062 250.667969 C 365.074219 247.777344 366.035156 244.863281 366.925781 241.929688 C 367.816406 238.992188 368.636719 236.035156 369.378906 233.058594 C 370.125 230.082031 370.796875 227.089844 371.398438 224.078125 C 371.996094 221.070312 372.519531 218.046875 372.96875 215.011719 C 373.421875 211.976562 373.796875 208.933594 374.097656 205.878906 C 374.398438 202.824219 374.625 199.765625 374.773438 196.699219 C 374.925781 193.636719 375 190.570312 375 187.5 C 375 184.429688 374.925781 181.363281 374.773438 178.300781 C 374.625 175.234375 374.398438 172.175781 374.097656 169.121094 C 373.796875 166.066406 373.421875 163.023438 372.96875 159.988281 C 372.519531 156.953125 371.996094 153.929688 371.398438 150.921875 C 370.796875 147.910156 370.125 144.917969 369.378906 141.941406 C 368.636719 138.964844 367.816406 136.007812 366.925781 133.070312 C 366.035156 130.136719 365.074219 127.222656 364.039062 124.332031 C 363.003906 121.445312 361.902344 118.582031 360.726562 115.746094 C 359.554688 112.910156 358.308594 110.105469 356.996094 107.332031 C 355.6875 104.558594 354.308594 101.820312 352.859375 99.113281 C 351.414062 96.40625 349.902344 93.738281 348.324219 91.105469 C 346.746094 88.472656 345.105469 85.882812 343.402344 83.332031 C 341.695312 80.777344 339.929688 78.269531 338.101562 75.804688 C 336.273438 73.339844 334.386719 70.921875 332.4375 68.550781 C 330.492188 66.179688 328.488281 63.855469 326.429688 61.582031 C 324.367188 59.308594 322.253906 57.085938 320.082031 54.917969 C 317.914062 52.746094 315.691406 50.632812 313.417969 48.570312 C 311.144531 46.511719 308.820312 44.507812 306.449219 42.558594 C 304.078125 40.613281 301.660156 38.726562 299.195312 36.898438 C 296.730469 35.070312 294.222656 33.304688 291.667969 31.597656 C 289.117188 29.894531 286.527344 28.253906 283.894531 26.675781 C 281.261719 25.097656 278.59375 23.585938 275.886719 22.140625 C 273.179688 20.691406 270.441406 19.3125 267.667969 18.003906 C 264.890625 16.691406 262.089844 15.445312 259.253906 14.273438 C 256.417969 13.097656 253.554688 11.996094 250.667969 10.960938 C 247.777344 9.925781 244.863281 8.964844 241.929688 8.074219 C 238.992188 7.183594 236.035156 6.363281 233.058594 5.617188 C 230.082031 4.875 227.089844 4.203125 224.078125 3.601562 C 221.070312 3.003906 218.046875 2.480469 215.011719 2.03125 C 211.976562 1.578125 208.933594 1.203125 205.878906 0.902344 C 202.824219 0.601562 199.765625 0.375 196.699219 0.226562 C 193.636719 0.0742188 190.570312 0 187.5 0 Z M 187.5 0 "/>
<path style=" stroke:none;fill-rule:nonzero;fill:rgb(100%,100%,100%);fill-opacity:1;" d="M 187.5 2.382812 C 184.46875 2.382812 181.441406 2.457031 178.417969 2.605469 C 175.390625 2.753906 172.371094 2.976562 169.355469 3.273438 C 166.339844 3.570312 163.335938 3.941406 160.335938 4.386719 C 157.339844 4.832031 154.355469 5.347656 151.386719 5.941406 C 148.414062 6.53125 145.460938 7.195312 142.519531 7.929688 C 139.582031 8.667969 136.664062 9.476562 133.761719 10.355469 C 130.863281 11.234375 127.988281 12.183594 125.136719 13.203125 C 122.285156 14.226562 119.457031 15.316406 116.660156 16.472656 C 113.859375 17.632812 111.089844 18.859375 108.351562 20.15625 C 105.613281 21.453125 102.910156 22.8125 100.238281 24.242188 C 97.566406 25.667969 94.929688 27.164062 92.332031 28.71875 C 89.730469 30.277344 87.171875 31.898438 84.65625 33.582031 C 82.136719 35.265625 79.660156 37.007812 77.226562 38.8125 C 74.792969 40.617188 72.40625 42.480469 70.0625 44.402344 C 67.722656 46.324219 65.429688 48.304688 63.183594 50.335938 C 60.9375 52.371094 58.746094 54.460938 56.601562 56.601562 C 54.460938 58.746094 52.371094 60.9375 50.335938 63.183594 C 48.304688 65.429688 46.324219 67.722656 44.402344 70.0625 C 42.480469 72.40625 40.617188 74.792969 38.8125 77.226562 C 37.007812 79.660156 35.265625 82.136719 33.582031 84.65625 C 31.898438 87.171875 30.277344 89.730469 28.71875 92.332031 C 27.164062 94.929688 25.667969 97.566406 24.242188 100.238281 C 22.8125 102.910156 21.453125 105.613281 20.15625 108.351562 C 18.859375 111.089844 17.632812 113.859375 16.472656 116.660156 C 15.316406 119.457031 14.226562 122.285156 13.203125 125.136719 C 12.183594 127.988281 11.234375 130.863281 10.355469 133.761719 C 9.476562 136.664062 8.667969 139.582031 7.929688 142.519531 C 7.195312 145.460938 6.53125 148.414062 5.941406 151.386719 C 5.347656 154.355469 4.832031 157.339844 4.386719 160.335938 C 3.941406 163.335938 3.570312 166.339844 3.273438 169.355469 C 2.976562 172.371094 2.753906 175.390625 2.605469 178.417969 C 2.457031 181.441406 2.382812 184.46875 2.382812 187.5 C 2.382812 190.53125 2.457031 193.558594 2.605469 196.582031 C 2.753906 199.609375 2.976562 202.628906 3.273438 205.644531 C 3.570312 208.660156 3.941406 211.664062 4.386719 214.664062 C 4.832031 217.660156 5.347656 220.644531 5.941406 223.613281 C 6.53125 226.585938 7.195312 229.539062 7.929688 232.480469 C 8.667969 235.417969 9.476562 238.335938 10.355469 241.238281 C 11.234375 244.136719 12.183594 247.011719 13.203125 249.863281 C 14.226562 252.714844 15.316406 255.542969 16.472656 258.339844 C 17.632812 261.140625 18.859375 263.910156 20.15625 266.648438 C 21.453125 269.386719 22.8125 272.089844 24.242188 274.761719 C 25.667969 277.433594 27.164062 280.070312 28.71875 282.667969 C 30.277344 285.269531 31.898438 287.828125 33.582031 290.34375 C 35.265625 292.863281 37.007812 295.339844 38.8125 297.773438 C 40.617188 300.207031 42.480469 302.59375 44.402344 304.9375 C 46.324219 307.277344 48.304688 309.570312 50.335938 311.816406 C 52.371094 314.0625 54.460938 316.253906 56.601562 318.398438 C 58.746094 320.539062 60.9375 322.628906 63.183594 324.664062 C 65.429688 326.695312 67.722656 328.675781 70.0625 330.597656 C 72.40625 332.519531 74.792969 334.382812 77.226562 336.1875 C 79.660156 337.992188 82.136719 339.734375 84.65625 341.417969 C 87.171875 343.101562 89.730469 344.722656 92.332031 346.28125 C 94.929688 347.835938 97.566406 349.332031 100.238281 350.757812 C 102.910156 352.1875 105.613281 353.546875 108.351562 354.84375 C 111.089844 356.140625 113.859375 357.367188 116.660156 358.527344 C 119.457031 359.683594 122.285156 360.773438 125.136719 361.796875 C 127.988281 362.816406 130.863281 363.765625 133.761719 364.644531 C 136.664062 365.523438 139.582031 366.332031 142.519531 367.070312 C 145.460938 367.804688 148.414062 368.46875 151.386719 369.058594 C 154.355469 369.652344 157.339844 370.167969 160.335938 370.613281 C 163.335938 371.058594 166.339844 371.429688 169.355469 371.726562 C 172.371094 372.023438 175.390625 372.246094 178.417969 372.394531 C 181.441406 372.542969 184.46875 372.617188 187.5 372.617188 C 190.53125 372.617188 193.558594 372.542969 196.582031 372.394531 C 199.609375 372.246094 202.628906 372.023438 205.644531 371.726562 C 208.660156 371.429688 211.664062 371.058594 214.664062 370.613281 C 217.660156 370.167969 220.644531 369.652344 223.613281 369.058594 C 226.585938 368.46875 229.539062 367.804688 232.480469 367.070312 C 235.417969 366.332031 238.335938 365.523438 241.238281 364.644531 C 244.136719 363.765625 247.011719 362.816406 249.863281 361.796875 C 252.714844 360.773438 255.542969 359.683594 258.339844 358.527344 C 261.140625 357.367188 263.910156 356.140625 266.648438 354.84375 C 269.386719 353.546875 272.089844 352.1875 274.761719 350.757812 C 277.433594 349.332031 280.070312 347.835938 282.667969 346.28125 C 285.269531 344.722656 287.828125 343.101562 290.34375 341.417969 C 292.863281 339.734375 295.339844 337.992188 297.773438 336.1875 C 300.207031 334.382812 302.59375 332.519531 304.9375 330.597656 C 307.277344 328.675781 309.570312 326.695312 311.816406 324.664062 C 314.0625 322.628906 316.253906 320.539062 318.398438 318.398438 C 320.539062 316.253906 322.628906 314.0625 324.664062 311.816406 C 326.695312 309.570312 328.675781 307.277344 330.597656 304.9375 C 332.519531 302.59375 334.382812 300.207031 336.1875 297.773438 C 337.992188 295.339844 339.734375 292.863281 341.417969 290.34375 C 343.101562 287.828125 344.722656 285.269531 346.28125 282.667969 C 347.835938 280.070312 349.332031 277.433594 350.757812 274.761719 C 352.1875 272.089844 353.546875 269.386719 354.84375 266.648438 C 356.140625 263.910156 357.367188 261.140625 358.527344 258.339844 C 359.683594 255.542969 360.773438 252.714844 361.796875 249.863281 C 362.816406 247.011719 363.765625 244.136719 364.644531 241.238281 C 365.523438 238.335938 366.332031 235.417969 367.070312 232.480469 C 367.804688 229.539062 368.46875 226.585938 369.058594 223.613281 C 369.652344 220.644531 370.167969 217.660156 370.613281 214.664062 C 371.058594 211.664062 371.429688 208.660156 371.726562 205.644531 C 372.023438 202.628906 372.246094 199.609375 372.394531 196.582031 C 372.542969 193.558594 372.617188 190.53125 372.617188 187.5 C 372.617188 184.46875 372.542969 181.441406 372.394531 178.417969 C 372.246094 175.390625 372.023438 172.371094 371.726562 169.355469 C 371.429688 166.339844 371.058594 163.335938 370.613281 160.335938 C 370.167969 157.339844 369.652344 154.355469 369.058594 151.386719 C 368.46875 148.414062 367.804688 145.460938 367.070312 142.519531 C 366.332031 139.582031 365.523438 136.664062 364.644531 133.761719 C 363.765625 130.863281 362.816406 127.988281 361.796875 125.136719 C 360.773438 122.285156 359.683594 119.457031 358.527344 116.660156 C 357.367188 113.859375 356.140625 111.089844 354.84375 108.351562 C 353.546875 105.613281 352.1875 102.910156 350.757812 100.238281 C 349.332031 97.566406 347.835938 94.929688 346.28125 92.332031 C 344.722656 89.730469 343.101562 87.171875 341.417969 84.65625 C 339.734375 82.136719 337.992188 79.660156 336.1875 77.226562 C 334.382812 74.792969 332.519531 72.40625 330.597656 70.0625 C 328.675781 67.722656 326.695312 65.429688 324.664062 63.183594 C 322.628906 60.9375 320.539062 58.746094 318.398438 56.601562 C 316.253906 54.460938 314.0625 52.371094 311.816406 50.335938 C 309.570312 48.304688 307.277344 46.324219 304.9375 44.402344 C 302.59375 42.480469 300.207031 40.617188 297.773438 38.8125 C 295.339844 37.007812 292.863281 35.265625 290.34375 33.582031 C 287.828125 31.898438 285.269531 30.277344 282.667969 28.71875 C 280.070312 27.164062 277.433594 25.667969 274.761719 24.242188 C 272.089844 22.8125 269.386719 21.453125 266.648438 20.15625 C 263.910156 18.859375 261.140625 17.632812 258.339844 16.472656 C 255.542969 15.316406 252.714844 14.226562 249.863281 13.203125 C 247.011719 12.183594 244.136719 11.234375 241.238281 10.355469 C 238.335938 9.476562 235.417969 8.667969 232.480469 7.929688 C 229.539062 7.195312 226.585938 6.53125 223.613281 5.941406 C 220.644531 5.347656 217.660156 4.832031 214.664062 4.386719 C 211.664062 3.941406 208.660156 3.570312 205.644531 3.273438 C 202.628906 2.976562 199.609375 2.753906 196.582031 2.605469 C 193.558594 2.457031 190.53125 2.382812 187.5 2.382812 Z M 187.5 2.382812 "/>
<path style=" stroke:none;fill-rule:nonzero;fill:rgb(0%,0%,0%);fill-opacity:1;" d="M 187.5 9.769531 C 184.589844 9.769531 181.683594 9.84375 178.777344 9.984375 C 175.875 10.128906 172.972656 10.339844 170.078125 10.625 C 167.183594 10.910156 164.300781 11.265625 161.421875 11.695312 C 158.542969 12.121094 155.679688 12.617188 152.828125 13.1875 C 149.972656 13.753906 147.136719 14.390625 144.316406 15.097656 C 141.492188 15.804688 138.691406 16.578125 135.90625 17.421875 C 133.125 18.269531 130.363281 19.179688 127.625 20.160156 C 124.886719 21.140625 122.171875 22.1875 119.484375 23.300781 C 116.796875 24.414062 114.140625 25.589844 111.511719 26.835938 C 108.882812 28.078125 106.285156 29.386719 103.71875 30.757812 C 101.152344 32.128906 98.625 33.5625 96.128906 35.054688 C 93.632812 36.550781 91.175781 38.105469 88.757812 39.722656 C 86.339844 41.339844 83.964844 43.015625 81.625 44.746094 C 79.289062 46.480469 77 48.269531 74.75 50.113281 C 72.5 51.957031 70.300781 53.859375 68.144531 55.8125 C 65.988281 57.765625 63.882812 59.769531 61.828125 61.828125 C 59.769531 63.882812 57.765625 65.988281 55.8125 68.144531 C 53.859375 70.300781 51.957031 72.5 50.113281 74.75 C 48.269531 77 46.480469 79.289062 44.746094 81.625 C 43.015625 83.964844 41.339844 86.339844 39.722656 88.757812 C 38.105469 91.175781 36.550781 93.632812 35.054688 96.128906 C 33.5625 98.625 32.128906 101.152344 30.757812 103.71875 C 29.386719 106.285156 28.078125 108.882812 26.835938 111.511719 C 25.589844 114.140625 24.414062 116.796875 23.300781 119.484375 C 22.1875 122.171875 21.140625 124.886719 20.160156 127.625 C 19.179688 130.363281 18.269531 133.125 17.421875 135.90625 C 16.578125 138.691406 15.804688 141.492188 15.097656 144.316406 C 14.390625 147.136719 13.753906 149.972656 13.1875 152.828125 C 12.617188 155.679688 12.121094 158.542969 11.695312 161.421875 C 11.265625 164.300781 10.910156 167.183594 10.625 170.078125 C 10.339844 172.972656 10.128906 175.875 9.984375 178.777344 C 9.84375 181.683594 9.769531 184.589844 9.769531 187.5 C 9.769531 190.410156 9.84375 193.316406 9.984375 196.222656 C 10.128906 199.125 10.339844 202.027344 10.625 204.921875 C 10.910156 207.816406 11.265625 210.699219 11.695312 213.578125 C 12.121094 216.457031 12.617188 219.320312 13.1875 222.171875 C 13.753906 225.027344 14.390625 227.863281 15.097656 230.683594 C 15.804688 233.507812 16.578125 236.308594 17.421875 239.09375 C 18.269531 241.875 19.179688 244.636719 20.160156 247.375 C 21.140625 250.113281 22.1875 252.828125 23.300781 255.515625 C 24.414062 258.203125 25.589844 260.859375 26.835938 263.488281 C 28.078125 266.117188 29.386719 268.714844 30.757812 271.28125 C 32.128906 273.847656 33.5625 276.375 35.054688 278.871094 C 36.550781 281.367188 38.105469 283.824219 39.722656 286.242188 C 41.339844 288.660156 43.015625 291.035156 44.746094 293.375 C 46.480469 295.710938 48.269531 298 50.113281 300.25 C 51.957031 302.5 53.859375 304.699219 55.8125 306.855469 C 57.765625 309.011719 59.769531 311.117188 61.828125 313.171875 C 63.882812 315.230469 65.988281 317.234375 68.144531 319.1875 C 70.300781 321.140625 72.5 323.042969 74.75 324.886719 C 77 326.730469 79.289062 328.519531 81.625 330.253906 C 83.964844 331.984375 86.339844 333.660156 88.757812 335.277344 C 91.175781 336.890625 93.632812 338.449219 96.128906 339.945312 C 98.625 341.4375 101.152344 342.871094 103.71875 344.242188 C 106.285156 345.613281 108.882812 346.921875 111.511719 348.164062 C 114.140625 349.410156 116.796875 350.585938 119.484375 351.699219 C 122.171875 352.8125 124.886719 353.859375 127.625 354.839844 C 130.363281 355.820312 133.125 356.730469 135.90625 357.578125 C 138.691406 358.421875 141.492188 359.195312 144.316406 359.902344 C 147.136719 360.609375 149.972656 361.246094 152.828125 361.8125 C 155.679688 362.382812 158.542969 362.878906 161.421875 363.304688 C 164.300781 363.734375 167.183594 364.089844 170.078125 364.375 C 172.972656 364.660156 175.875 364.871094 178.777344 365.015625 C 181.683594 365.15625 184.589844 365.230469 187.5 365.230469 C 190.410156 365.230469 193.316406 365.15625 196.222656 365.015625 C 199.125 364.871094 202.027344 364.660156 204.921875 364.375 C 207.816406 364.089844 210.699219 363.734375 213.578125 363.304688 C 216.457031 362.878906 219.320312 362.382812 222.171875 361.8125 C 225.027344 361.246094 227.863281 360.609375 230.683594 359.902344 C 233.507812 359.195312 236.308594 358.421875 239.09375 357.578125 C 241.875 356.730469 244.636719 355.820312 247.375 354.839844 C 250.113281 353.859375 252.828125 352.8125 255.515625 351.699219 C 258.203125 350.585938 260.859375 349.410156 263.488281 348.164062 C 266.117188 346.921875 268.714844 345.613281 271.28125 344.242188 C 273.847656 342.871094 276.375 341.4375 278.871094 339.945312 C 281.367188 338.449219 283.824219 336.890625 286.242188 335.277344 C 288.660156 333.660156 291.035156 331.984375 293.375 330.253906 C 295.710938 328.519531 298 326.730469 300.25 324.886719 C 302.5 323.042969 304.699219 321.140625 306.855469 319.1875 C 309.011719 317.234375 311.117188 315.230469 313.171875 313.171875 C 315.230469 311.117188 317.234375 309.011719 319.1875 306.855469 C 321.140625 304.699219 323.042969 302.5 324.886719 300.25 C 326.730469 298 328.519531 295.710938 330.253906 293.375 C 331.984375 291.035156 333.660156 288.660156 335.277344 286.242188 C 336.890625 283.824219 338.449219 281.367188 339.945312 278.871094 C 341.4375 276.375 342.871094 273.847656 344.242188 271.28125 C 345.613281 268.714844 346.921875 266.117188 348.164062 263.488281 C 349.410156 260.859375 350.585938 258.203125 351.699219 255.515625 C 352.8125 252.828125 353.859375 250.113281 354.839844 247.375 C 355.820312 244.636719 356.730469 241.875 357.578125 239.09375 C 358.421875 236.308594 359.195312 233.507812 359.902344 230.683594 C 360.609375 227.863281 361.246094 225.027344 361.8125 222.171875 C 362.382812 219.320312 362.878906 216.457031 363.304688 213.578125 C 363.734375 210.699219 364.089844 207.816406 364.375 204.921875 C 364.660156 202.027344 364.871094 199.125 365.015625 196.222656 C 365.15625 193.316406 365.230469 190.410156 365.230469 187.5 C 365.230469 184.589844 365.15625 181.683594 365.015625 178.777344 C 364.871094 175.875 364.660156 172.972656 364.375 170.078125 C 364.089844 167.183594 363.734375 164.300781 363.304688 161.421875 C 362.878906 158.542969 362.382812 155.679688 361.8125 152.828125 C 361.246094 149.972656 360.609375 147.136719 359.902344 144.316406 C 359.195312 141.492188 358.421875 138.691406 357.578125 135.90625 C 356.730469 133.125 355.820312 130.363281 354.839844 127.625 C 353.859375 124.886719 352.8125 122.171875 351.699219 119.484375 C 350.585938 116.796875 349.410156 114.140625 348.164062 111.511719 C 346.921875 108.882812 345.613281 106.285156 344.242188 103.71875 C 342.871094 101.152344 341.4375 98.625 339.945312 96.128906 C 338.449219 93.632812 336.890625 91.175781 335.277344 88.757812 C 333.660156 86.339844 331.984375 83.964844 330.253906 81.625 C 328.519531 79.289062 326.730469 77 324.886719 74.75 C 323.042969 72.5 321.140625 70.300781 319.1875 68.144531 C 317.234375 65.988281 315.230469 63.882812 313.171875 61.828125 C 311.117188 59.769531 309.011719 57.765625 306.855469 55.8125 C 304.699219 53.859375 302.5 51.957031 300.25 50.113281 C 298 48.269531 295.710938 46.480469 293.375 44.746094 C 291.035156 43.015625 288.660156 41.339844 286.242188 39.722656 C 283.824219 38.105469 281.367188 36.550781 278.871094 35.054688 C 276.375 33.5625 273.847656 32.128906 271.28125 30.757812 C 268.714844 29.386719 266.117188 28.078125 263.488281 26.835938 C 260.859375 25.589844 258.203125 24.414062 255.515625 23.300781 C 252.828125 22.1875 250.113281 21.140625 247.375 20.160156 C 244.636719 19.179688 241.875 18.269531 239.09375 17.421875 C 236.308594 16.578125 233.507812 15.804688 230.683594 15.097656 C 227.863281 14.390625 225.027344 13.753906 222.171875 13.1875 C 219.320312 12.617188 216.457031 12.121094 213.578125 11.695312 C 210.699219 11.265625 207.816406 10.910156 204.921875 10.625 C 202.027344 10.339844 199.125 10.128906 196.222656 9.984375 C 193.316406 9.84375 190.410156 9.769531 187.5 9.769531 Z M 187.5 9.769531 "/>
<path style=" stroke:none;fill-rule:nonzero;fill:rgb(100%,74.119568%,29.019165%);fill-opacity:1;" d="M 324.28125 166.214844 L 219.460938 87.667969 C 214.402344 83.90625 208.90625 82.027344 203.269531 82.027344 C 191.269531 82.027344 182.449219 91.285156 182.449219 104.160156 L 182.449219 151.027344 L 75.007812 151.027344 C 55.203125 151.460938 39.296875 167.660156 39.296875 187.625 C 39.296875 207.585938 55.203125 223.785156 75.007812 224.21875 L 182.449219 224.21875 L 182.449219 271.085938 C 182.449219 283.960938 191.269531 293.21875 203.269531 293.21875 C 208.90625 293.21875 214.402344 291.195312 219.460938 287.433594 L 324.28125 209.03125 C 331.507812 203.535156 335.703125 195.722656 335.703125 187.625 C 335.703125 179.378906 331.507812 171.710938 324.28125 166.214844 Z M 324.28125 166.214844 "/>
</g>
</svg>
